#!OML:ASF I:\Actors\actors\Patient Classification 2\Patient 1\Session 1\actor1.ASF
:FULLY-SPECIFIED
:DEGREES
421
root -0.785023 17.9768 6.21285 -3.4797 -7.03774 -3.62327
lowerback 3.30425 0.981883 -1.07167
upperback -0.812261 1.29619 1.24182
thorax -2.73987 0.674483 1.80419
lowerneck -17.9754 -0.672256 1.89858
upperneck 13.6884 -1.89602 2.78483
head 7.16104 -0.542594 0.389626
rclavicle -1.33186e-014 -1.39149e-014
rhumerus -52.8434 -13.791 -64.5732
rradius 43.8696
rwrist -7.64225
rhand -15.4794 -46.1707
rfingers 7.12502
rthumb 10.7024 -75.8781
lclavicle -1.33186e-014 -1.39149e-014
lhumerus -37.6683 6.61241 77.8124
lradius 46.5279
lwrist 5.03915
lhand -9.74957 -24.2544
lfingers 7.12502
lthumb 16.2248 5.0867
rfemur 14.2457 10.4699 20.2679
rtibia -1.11319e-014
rfoot -21.6056 -12.551
rtoes 3.12033
lfemur 24.9143 -6.71992 -16.237
ltibia -19.5462
lfoot -7.74227 23.2327
ltoes -0.606116
422
root -0.78648 17.9744 6.22139 -3.53118 -7.06635 -3.5503
lowerback 3.30007 0.891541 -1.18938
upperback -0.755593 1.1704 1.24476
thorax -2.67662 0.612808 1.88109
lowerneck -18.0779 -0.505447 1.95623
upperneck 13.7782 -1.6742 2.69122
head 7.20508 -0.439532 0.374527
rclavicle -1.38901e-014 4.57205e-015
rhumerus -53.8731 -14.152 -64.8387
rradius 42.9856
rwrist -6.99847
rhand -15.1008 -45.551
rfingers 7.12502
rthumb 11.0675 -75.2392
lclavicle -1.38901e-014 4.57205e-015
lhumerus -37.1952 6.21263 79.2291
lradius 46.41
lwrist 4.89808
lhand -9.68741 -23.8488
lfingers 7.12502
lthumb 16.2846 5.48738
rfemur 14.3147 10.5037 20.2042
rtibia 2.22639e-014
rfoot -21.5855 -12.5895
rtoes 3.18976
lfemur 24.9709 -6.91062 -16.3849
ltibia -19.4734
lfoot -7.90035 23.4228
ltoes -0.412157
423
root -0.789151 17.9727 6.23004 -3.58663 -7.06561 -3.46687
lowerback 3.33364 0.798781 -1.31577
upperback -0.724154 1.04011 1.2165
thorax -2.65942 0.549205 1.93021
lowerneck -18.084 -0.364764 2.12614
upperneck 13.7946 -1.49977 2.53277
head 7.20803 -0.361594 0.314879
rclavicle 1.5381e-014 -4.96962e-015
rhumerus -54.9184 -14.6037 -65.153
rradius 42.1029
rwrist -6.19037
rhand -14.8952 -45.1701
rfingers 7.12502
rthumb 11.2658 -74.8475
lclavicle 1.5381e-014 -4.96962e-015
lhumerus -36.8439 5.64688 80.6664
lradius 46.4637
lwrist 4.65729
lhand -9.55615 -22.8243
lfingers 7.12502
lthumb 16.411 6.50145
rfemur 14.3933 10.5074 20.1338
rtibia -4.92986e-014
rfoot -21.6421 -12.5874
rtoes 3.57066
lfemur 25.0214 -6.97137 -16.4981
ltibia -19.4072
lfoot -7.97948 23.4584
ltoes -0.401587
424
root -0.792817 17.9718 6.23824 -3.64523 -7.0373 -3.44749
lowerback 3.39238 0.691677 -1.39571
upperback -0.693674 0.893042 1.21328
thorax -2.65584 0.476789 1.97977
lowerneck -18.0368 -0.216222 2.32654
upperneck 13.7604 -1.30992 2.32291
head 7.18527 -0.280867 0.235216
rclavicle -5.11871e-015 1.37161e-014
rhumerus -55.9108 -15.1139 -65.4194
rradius 41.2852
rwrist -5.29658
rhand -14.2816 -44.7517
rfingers 7.12502
rthumb 11.8575 -74.3959
lclavicle -5.11871e-015 1.37161e-014
lhumerus -36.6668 4.79568 82.1606
lradius 46.5574
lwrist 4.74491
lhand -9.41994 -22.2177
lfingers 7.12502
lthumb 16.5422 7.09724
rfemur 14.4872 10.4764 20.1363
rtibia -3.81667e-014
rfoot -21.7104 -12.568
rtoes 3.91159
lfemur 25.0752 -6.9431 -16.5128
ltibia -19.3462
lfoot -7.9504 23.4002
ltoes -0.979298
425
root -0.796092 17.9704 6.24492 -3.71472 -6.9998 -3.43322
lowerback 3.45211 0.565288 -1.47759
upperback -0.641602 0.720523 1.22997
thorax -2.6293 0.39144 2.05263
lowerneck -18.0383 -0.0498761 2.4618
upperneck 13.7916 -1.08777 2.1411
head 7.19349 -0.183928 0.178888
rclavicle 1.92573e-014 -4.96962e-015
rhumerus -56.7997 -15.6102 -65.678
rradius 40.5512
rwrist -4.37721
rhand -13.3499 -44.0398
rfingers 7.12502
rthumb 12.7559 -73.6301
lclavicle 1.92573e-014 -4.96962e-015
lhumerus -36.5931 3.85548 83.6698
lradius 46.5901
lwrist 4.99499
lhand -9.28836 -22.2026
lfingers 7.12502
lthumb 16.6688 7.10163
rfemur 14.5871 10.4375 20.1405
rtibia -1.43125e-014
rfoot -21.7611 -12.5316
rtoes 4.14211
lfemur 25.1338 -6.95114 -16.5383
ltibia -19.2928
lfoot -7.87526 23.4083
ltoes -1.55397
426
root -0.798865 17.9679 6.25154 -3.80198 -6.97368 -3.37646
lowerback 3.50154 0.468479 -1.57559
upperback -0.568248 0.586217 1.22497
thorax -2.57624 0.324707 2.11022
lowerneck -18.0461 0.100973 2.55152
upperneck 13.7972 -0.882386 2.00475
head 7.19552 -0.0935572 0.142915
rclavicle -1.75179e-014 1.39149e-015
rhumerus -57.6771 -16.175 -65.9658
rradius 39.9795
rwrist -3.53954
rhand -12.5038 -43.3765
rfingers 7.12502
rthumb 13.5715 -72.9142
lclavicle -1.75179e-014 1.39149e-015
lhumerus -36.4747 3.02447 85.1278
lradius 46.4694
lwrist 4.89697
lhand -8.89851 -22.3685
lfingers 7.12502
lthumb 17.0441 6.90376
rfemur 14.7049 10.4151 20.0992
rtibia -3.97569e-014
rfoot -21.8045 -12.4549
rtoes 4.59477
lfemur 25.2258 -7.01093 -16.6329
ltibia -19.2436
lfoot -7.90683 23.4625
ltoes -1.58217
427
root -0.802439 17.9656 6.25869 -3.86093 -6.97782 -3.3032
lowerback 3.51401 0.419016 -1.68833
upperback -0.478403 0.514767 1.21618
thorax -2.48828 0.288881 2.16881
lowerneck -18.0636 0.197097 2.5289
upperneck 13.7086 -0.737471 1.96704
head 7.16945 -0.0303355 0.150529
rclavicle -1.82633e-015 1.19271e-014
rhumerus -58.5358 -16.7597 -66.3042
rradius 39.6426
rwrist -2.9203
rhand -11.8152 -43.0416
rfingers 7.12502
rthumb 14.2351 -72.5338
lclavicle -1.82633e-015 1.19271e-014
lhumerus -36.382 2.12887 86.5831
lradius 46.2279
lwrist 4.69574
lhand -8.24905 -23.1441
lfingers 7.12502
lthumb 17.6692 6.07306
rfemur 14.7944 10.4228 20.0421
rtibia 2.22639e-014
rfoot -21.8284 -12.3752
rtoes 5.22648
lfemur 25.2964 -7.09381 -16.7508
ltibia -19.1937
lfoot -7.99733 23.5508
ltoes -1.61632
428
root -0.806163 17.9656 6.26459 -3.88816 -7.00627 -3.25157
lowerback 3.53579 0.384376 -1.77357
upperback -0.383396 0.464406 1.21412
thorax -2.40092 0.263036 2.21756
lowerneck -18.1863 0.254805 2.4136
upperneck 13.6647 -0.642992 2.02673
head 7.17638 0.0144703 0.199532
rclavicle -1.39274e-014 -6.75868e-015
rhumerus -59.2651 -17.2585 -66.7526
rradius 39.4394
rwrist -2.44812
rhand -11.2986 -42.831
rfingers 7.12502
rthumb 14.7328 -72.2875
lclavicle -1.39274e-014 -6.75868e-015
lhumerus -36.3792 1.01251 88.0672
lradius 46.0183
lwrist 4.76285
lhand -7.50809 -24.2709
lfingers 7.12502
lthumb 18.3821 4.88051
rfemur 14.84 10.4515 20.0071
rtibia 4.13472e-014
rfoot -21.7962 -12.3478
rtoes 5.51968
lfemur 25.3196 -7.02859 -16.7965
ltibia -19.1502
lfoot -7.95241 23.5296
ltoes -1.99816
429
root -0.810392 17.9651 6.26922 -3.93218 -7.06787 -3.23855
lowerback 3.66251 0.352054 -1.81095
upperback -0.339628 0.417604 1.2043
thorax -2.42485 0.239943 2.23069
lowerneck -18.2908 0.325035 2.43108
upperneck 13.6954 -0.551636 1.9975
head 7.20398 0.0575307 0.197743
rclavicle 1.98785e-015 0
rhumerus -59.9787 -17.6134 -67.3124
rradius 39.3334
rwrist -2.07457
rhand -10.7319 -42.3134
rfingers 7.12502
rthumb 15.2787 -71.7291
lclavicle 1.98785e-015 0
lhumerus -36.527 -0.152448 89.4994
lradius 46.0209
lwrist 4.8682
lhand -6.62467 -24.6579
lfingers 7.12502
lthumb 19.2318 4.41116
rfemur 14.8938 10.5073 20.0249
rtibia -1.27222e-014
rfoot -21.7333 -12.3757
rtoes 5.33616
lfemur 25.3607 -6.86235 -16.7666
ltibia -19.1097
lfoot -7.89153 23.4281
ltoes -2.37716
430
root -0.816219 17.963 6.27475 -3.9651 -7.20816 -3.25207
lowerback 3.83571 0.336434 -1.81336
upperback -0.35376 0.393596 1.18063
thorax -2.53529 0.229219 2.20848
lowerneck -18.288 0.411212 2.65437
upperneck 13.7071 -0.4542 1.77723
head 7.20635 0.0953164 0.100512
rclavicle -3.49116e-015 6.36111e-015
rhumerus -60.6795 -17.7245 -68.061
rradius 39.3666
rwrist -1.79138
rhand -10.083 -41.6392
rfingers 7.12502
rthumb 15.9038 -71.0062
lclavicle -3.49116e-015 6.36111e-015
lhumerus -36.8731 -1.24006 90.8215
lradius 46.2482
lwrist 4.85732
lhand -5.57242 -24.5294
lfingers 7.12502
lthumb 20.2433 4.43576
rfemur 14.923 10.6348 20.0854
rtibia 1.59028e-015
rfoot -21.7044 -12.4399
rtoes 5.04818
lfemur 25.4267 -6.72554 -16.7203
ltibia -19.1027
lfoot -7.89587 23.4435
ltoes -2.4638
431
root -0.821773 17.9619 6.28229 -3.98141 -7.43295 -3.24026
lowerback 3.95937 0.343333 -1.79827
upperback -0.356578 0.400477 1.13183
thorax -2.60753 0.23293 2.14885
lowerneck -18.2598 0.508987 2.8792
upperneck 13.6637 -0.34527 1.59183
head 7.18705 0.141002 0.0156474
rclavicle -9.59136e-015 -7.15625e-015
rhumerus -61.1537 -17.5996 -69.0633
rradius 39.5122
rwrist -1.45241
rhand -9.30923 -41.2952
rfingers 7.12502
rthumb 16.6488 -70.6012
lclavicle -9.59136e-015 -7.15625e-015
lhumerus -37.3608 -2.35708 92.0654
lradius 46.6316
lwrist 4.86557
lhand -4.46916 -24.4408
lfingers 7.12502
lthumb 21.3034 4.40829
rfemur 14.9261 10.8497 20.1195
rtibia 6.36111e-015
rfoot -21.6833 -12.4914
rtoes 4.87269
lfemur 25.514 -6.59065 -16.7254
ltibia -19.1205
lfoot -7.9092 23.5512
ltoes -2.4849
432
root -0.845447 17.955 6.29771 -4.10093 -7.26255 -3.28398
lowerback 3.93854 0.234122 -2.05689
upperback -0.25729 0.243936 1.17474
thorax -2.4871 0.156231 2.34834
lowerneck -18.2826 0.601459 2.97098
upperneck 13.6419 -0.238503 1.5594
head 7.18436 0.193722 0.00234009
rclavicle -1.70955e-014 2.38542e-015
rhumerus -61.379 -17.3068 -70.1803
rradius 39.6814
rwrist -1.09871
rhand -8.59515 -41.0305
rfingers 7.12502
rthumb 17.3361 -70.2774
lclavicle -1.70955e-014 2.38542e-015
lhumerus -37.9569 -3.47011 93.2972
lradius 47.1231
lwrist 4.90001
lhand -3.31971 -24.3361
lfingers 7.12502
lthumb 22.4071 4.3843
rfemur 15.2119 10.6355 20.2949
rtibia 3.81667e-014
rfoot -21.7728 -12.3802
rtoes 4.9285
lfemur 25.6959 -6.18273 -16.4482
ltibia -19.1448
lfoot -7.68083 22.98
ltoes -3.02233
433
root -0.853075 17.9542 6.30588 -4.11965 -7.38104 -3.36903
lowerback 4.00135 0.220485 -2.04783
upperback -0.224947 0.225844 1.20389
thorax -2.48816 0.146934 2.37435
lowerneck -18.3803 0.66145 2.97286
upperneck 13.7147 -0.166114 1.57467
head 7.22532 0.231605 0.0156837
rclavicle 1.95182e-014 -1.86858e-014
rhumerus -61.4633 -16.8898 -71.3054
rradius 39.8239
rwrist -0.72506
rhand -8.27594 -40.4274
rfingers 7.12502
rthumb 17.6433 -69.6469
lclavicle 1.95182e-014 -1.86858e-014
lhumerus -38.6411 -4.34633 94.4429
lradius 47.6604
lwrist 4.89122
lhand -2.01395 -24.2074
lfingers 7.12502
lthumb 23.66 4.35658
rfemur 15.7366 10.7183 20.4996
rtibia -0.892998
rfoot -21.4254 -12.6511
rtoes 4.87021
lfemur 25.7926 -5.99429 -16.2906
ltibia -19.156
lfoot -7.70395 22.8807
ltoes -2.93161
434
root -0.854714 17.9545 6.31204 -4.09339 -7.69105 -3.45515
lowerback 4.06973 0.235384 -1.90049
upperback -0.216094 0.251581 1.19911
thorax -2.51813 0.158072 2.28483
lowerneck -18.4343 0.757751 3.02376
upperneck 13.7582 -0.0470629 1.54608
head 7.24952 0.289544 0.0119562
rclavicle 2.43511e-015 -1.59028e-015
rhumerus -61.4027 -16.3903 -72.4594
rradius 40.0113
rwrist -0.139702
rhand -8.05215 -39.7076
rfingers 7.12502
rthumb 17.8587 -68.9076
lclavicle 2.43511e-015 -1.59028e-015
lhumerus -39.3664 -4.8429 95.3473
lradius 48.2519
lwrist 4.92681
lhand -0.545788 -24.0648
lfingers 7.12502
lthumb 25.0675 4.31003
rfemur 16.2088 10.9974 20.6947
rtibia -1.87628
rfoot -20.9989 -13.0143
rtoes 4.65547
lfemur 25.8691 -6.00095 -16.248
ltibia -19.1566
lfoot -7.87461 23.1592
ltoes -2.68201
435
root -0.859368 17.9532 6.31867 -4.07124 -8.01414 -3.49294
lowerback 4.09628 0.24535 -1.83307
upperback -0.212314 0.267454 1.18741
thorax -2.52958 0.165111 2.2338
lowerneck -18.3145 0.894057 3.11585
upperneck 13.6745 0.12732 1.50839
head 7.20323 0.372461 0.00401183
rclavicle -4.37326e-015 -4.77083e-015
rhumerus -61.2895 -15.9054 -73.4945
rradius 40.3073
rwrist 0.629665
rhand -7.75741 -39.2674
rfingers 7.12502
rthumb 18.1422 -68.4413
lclavicle -4.37326e-015 -4.77083e-015
lhumerus -40.1316 -5.01585 96.0565
lradius 48.8264
lwrist 5.18747
lhand 0.904101 -23.8952
lfingers 7.12502
lthumb 26.4561 4.27827
rfemur 16.5202 11.2944 20.8292
rtibia -2.53683
rfoot -20.6911 -13.2937
rtoes 4.42917
lfemur 25.9431 -6.01671 -16.259
ltibia -19.1311
lfoot -8.05376 23.4641
ltoes -2.62321
